<mxfile host="app.diagrams.net" modified="2023-08-31T06:13:21.460Z" agent="Mozilla/5.0 (Windows NT 10.0; Win64; x64) AppleWebKit/537.36 (KHTML, like Gecko) Chrome/116.0.0.0 Safari/537.36" etag="0-7S9ghVmg95xL3eykqV" version="21.6.8" type="github">
  <diagram name="第 1 页" id="tTyKexbOoJwoOV7x55Js">
    <mxGraphModel dx="1050" dy="566" grid="1" gridSize="10" guides="1" tooltips="1" connect="1" arrows="1" fold="1" page="1" pageScale="1" pageWidth="827" pageHeight="1169" math="0" shadow="0">
      <root>
        <mxCell id="0" />
        <mxCell id="1" parent="0" />
        <mxCell id="Ohir-lPhPDSaUjCYVocN-1" value="前端" style="rounded=0;whiteSpace=wrap;html=1;fillColor=#dae8fc;strokeColor=#6c8ebf;fontStyle=1" vertex="1" parent="1">
          <mxGeometry x="40" y="70" width="120" height="40" as="geometry" />
        </mxCell>
        <mxCell id="Ohir-lPhPDSaUjCYVocN-2" value="" style="rounded=0;whiteSpace=wrap;html=1;fillColor=#dae8fc;strokeColor=#6c8ebf;" vertex="1" parent="1">
          <mxGeometry x="175" y="70" width="510" height="40" as="geometry" />
        </mxCell>
        <mxCell id="Ohir-lPhPDSaUjCYVocN-3" value="" style="rounded=0;whiteSpace=wrap;html=1;fillColor=#CDEB8B;" vertex="1" parent="1">
          <mxGeometry x="210" y="75" width="420" height="30" as="geometry" />
        </mxCell>
        <mxCell id="Ohir-lPhPDSaUjCYVocN-4" value="Web" style="text;html=1;strokeColor=none;fillColor=none;align=center;verticalAlign=middle;whiteSpace=wrap;rounded=0;" vertex="1" parent="1">
          <mxGeometry x="210" y="75" width="130" height="30" as="geometry" />
        </mxCell>
        <mxCell id="Ohir-lPhPDSaUjCYVocN-5" value="&lt;font color=&quot;#ffffff&quot;&gt;VUE&lt;/font&gt;" style="rounded=0;whiteSpace=wrap;html=1;fillColor=#19A1E2;" vertex="1" parent="1">
          <mxGeometry x="330" y="80" width="60" height="20" as="geometry" />
        </mxCell>
        <mxCell id="Ohir-lPhPDSaUjCYVocN-6" value="&lt;font color=&quot;#ffffff&quot;&gt;ElmentUI&lt;/font&gt;" style="rounded=0;whiteSpace=wrap;html=1;fillColor=#19A1E2;" vertex="1" parent="1">
          <mxGeometry x="460" y="80" width="60" height="20" as="geometry" />
        </mxCell>
        <mxCell id="Ohir-lPhPDSaUjCYVocN-7" value="网关" style="rounded=0;whiteSpace=wrap;html=1;fillColor=#ffe6cc;strokeColor=#d79b00;fontStyle=1" vertex="1" parent="1">
          <mxGeometry x="40" y="119" width="120" height="40" as="geometry" />
        </mxCell>
        <mxCell id="Ohir-lPhPDSaUjCYVocN-8" value="" style="rounded=0;whiteSpace=wrap;html=1;fillColor=#ffe6cc;strokeColor=#d79b00;" vertex="1" parent="1">
          <mxGeometry x="175" y="119" width="510" height="40" as="geometry" />
        </mxCell>
        <mxCell id="Ohir-lPhPDSaUjCYVocN-9" value="Nginx" style="rounded=0;whiteSpace=wrap;html=1;fillColor=#CDEB8B;" vertex="1" parent="1">
          <mxGeometry x="275" y="124" width="110" height="30" as="geometry" />
        </mxCell>
        <mxCell id="Ohir-lPhPDSaUjCYVocN-10" value="Spring Gateway" style="rounded=0;whiteSpace=wrap;html=1;fillColor=#CDEB8B;" vertex="1" parent="1">
          <mxGeometry x="481" y="124" width="110" height="30" as="geometry" />
        </mxCell>
        <mxCell id="Ohir-lPhPDSaUjCYVocN-11" value="接口层" style="rounded=0;whiteSpace=wrap;html=1;fillColor=#f0a30a;strokeColor=#BD7000;fontColor=#000000;fontStyle=1" vertex="1" parent="1">
          <mxGeometry x="40" y="170" width="120" height="40" as="geometry" />
        </mxCell>
        <mxCell id="Ohir-lPhPDSaUjCYVocN-12" value="" style="rounded=0;whiteSpace=wrap;html=1;fillColor=#f0a30a;strokeColor=#BD7000;fontColor=#000000;" vertex="1" parent="1">
          <mxGeometry x="175" y="170" width="510" height="40" as="geometry" />
        </mxCell>
        <mxCell id="Ohir-lPhPDSaUjCYVocN-13" value="RESTful API" style="rounded=0;whiteSpace=wrap;html=1;fillColor=#CDEB8B;" vertex="1" parent="1">
          <mxGeometry x="275" y="175" width="110" height="30" as="geometry" />
        </mxCell>
        <mxCell id="Ohir-lPhPDSaUjCYVocN-14" value="Web Socket" style="rounded=0;whiteSpace=wrap;html=1;fillColor=#CDEB8B;" vertex="1" parent="1">
          <mxGeometry x="482" y="175" width="110" height="30" as="geometry" />
        </mxCell>
        <mxCell id="Ohir-lPhPDSaUjCYVocN-15" value="服务层" style="rounded=0;whiteSpace=wrap;html=1;fillColor=#d5e8d4;strokeColor=#82b366;fontStyle=1" vertex="1" parent="1">
          <mxGeometry x="40" y="220" width="120" height="280" as="geometry" />
        </mxCell>
        <mxCell id="Ohir-lPhPDSaUjCYVocN-16" value="" style="rounded=0;whiteSpace=wrap;html=1;fillColor=#d5e8d4;strokeColor=#82b366;" vertex="1" parent="1">
          <mxGeometry x="175" y="220" width="510" height="40" as="geometry" />
        </mxCell>
        <mxCell id="Ohir-lPhPDSaUjCYVocN-17" value="统一鉴权" style="text;html=1;strokeColor=none;fillColor=none;align=center;verticalAlign=middle;whiteSpace=wrap;rounded=0;fontStyle=1" vertex="1" parent="1">
          <mxGeometry x="200" y="225" width="60" height="30" as="geometry" />
        </mxCell>
        <mxCell id="Ohir-lPhPDSaUjCYVocN-18" value="SpringSecurity" style="rounded=0;whiteSpace=wrap;html=1;fillColor=#CDEB8B;" vertex="1" parent="1">
          <mxGeometry x="275" y="225" width="110" height="30" as="geometry" />
        </mxCell>
        <mxCell id="Ohir-lPhPDSaUjCYVocN-19" value="JWT" style="rounded=0;whiteSpace=wrap;html=1;fillColor=#CDEB8B;" vertex="1" parent="1">
          <mxGeometry x="482" y="225" width="110" height="30" as="geometry" />
        </mxCell>
        <mxCell id="Ohir-lPhPDSaUjCYVocN-20" value="" style="rounded=0;whiteSpace=wrap;html=1;fillColor=#d5e8d4;strokeColor=#82b366;" vertex="1" parent="1">
          <mxGeometry x="290" y="270" width="260" height="180" as="geometry" />
        </mxCell>
        <mxCell id="Ohir-lPhPDSaUjCYVocN-21" value="" style="rounded=0;whiteSpace=wrap;html=1;fillColor=#d5e8d4;strokeColor=#82b366;" vertex="1" parent="1">
          <mxGeometry x="175" y="270" width="100" height="180" as="geometry" />
        </mxCell>
        <mxCell id="Ohir-lPhPDSaUjCYVocN-22" value="服务保障" style="text;html=1;strokeColor=none;fillColor=none;align=center;verticalAlign=middle;whiteSpace=wrap;rounded=0;fontStyle=1" vertex="1" parent="1">
          <mxGeometry x="195" y="280" width="60" height="30" as="geometry" />
        </mxCell>
        <mxCell id="Ohir-lPhPDSaUjCYVocN-23" value="ELK" style="rounded=0;whiteSpace=wrap;html=1;fillColor=#CDEB8B;" vertex="1" parent="1">
          <mxGeometry x="187.5" y="340" width="75" height="20" as="geometry" />
        </mxCell>
        <mxCell id="Ohir-lPhPDSaUjCYVocN-24" value="sky&amp;nbsp;walking" style="rounded=0;whiteSpace=wrap;html=1;fillColor=#CDEB8B;" vertex="1" parent="1">
          <mxGeometry x="187.5" y="399" width="75" height="20" as="geometry" />
        </mxCell>
        <mxCell id="Ohir-lPhPDSaUjCYVocN-25" value="服务工单管理" style="rounded=0;whiteSpace=wrap;html=1;fillColor=#CDEB8B;" vertex="1" parent="1">
          <mxGeometry x="304" y="280" width="110" height="20" as="geometry" />
        </mxCell>
        <mxCell id="Ohir-lPhPDSaUjCYVocN-26" value="交付资料管理" style="rounded=0;whiteSpace=wrap;html=1;fillColor=#CDEB8B;" vertex="1" parent="1">
          <mxGeometry x="425" y="280" width="105" height="20" as="geometry" />
        </mxCell>
        <mxCell id="Ohir-lPhPDSaUjCYVocN-27" value="质量管理" style="rounded=0;whiteSpace=wrap;html=1;fillColor=#CDEB8B;" vertex="1" parent="1">
          <mxGeometry x="304" y="306" width="110" height="20" as="geometry" />
        </mxCell>
        <mxCell id="Ohir-lPhPDSaUjCYVocN-28" value="装机清单管理" style="rounded=0;whiteSpace=wrap;html=1;fillColor=#CDEB8B;" vertex="1" parent="1">
          <mxGeometry x="425" y="306" width="105" height="20" as="geometry" />
        </mxCell>
        <mxCell id="Ohir-lPhPDSaUjCYVocN-29" value="gateway" style="rounded=0;whiteSpace=wrap;html=1;fillColor=#CDEB8B;" vertex="1" parent="1">
          <mxGeometry x="425" y="414" width="105" height="20" as="geometry" />
        </mxCell>
        <mxCell id="Ohir-lPhPDSaUjCYVocN-30" value="" style="rounded=0;whiteSpace=wrap;html=1;fillColor=#d5e8d4;strokeColor=#82b366;" vertex="1" parent="1">
          <mxGeometry x="565" y="270" width="120" height="100" as="geometry" />
        </mxCell>
        <mxCell id="Ohir-lPhPDSaUjCYVocN-31" value="服务注册" style="text;html=1;strokeColor=none;fillColor=none;align=center;verticalAlign=middle;whiteSpace=wrap;rounded=0;fontStyle=1" vertex="1" parent="1">
          <mxGeometry x="592" y="290" width="60" height="30" as="geometry" />
        </mxCell>
        <mxCell id="Ohir-lPhPDSaUjCYVocN-32" value="Nacos" style="rounded=0;whiteSpace=wrap;html=1;fillColor=#CDEB8B;" vertex="1" parent="1">
          <mxGeometry x="582" y="330" width="80" height="24" as="geometry" />
        </mxCell>
        <mxCell id="Ohir-lPhPDSaUjCYVocN-33" value="" style="rounded=0;whiteSpace=wrap;html=1;fillColor=#d5e8d4;strokeColor=#82b366;" vertex="1" parent="1">
          <mxGeometry x="565" y="390" width="120" height="60" as="geometry" />
        </mxCell>
        <mxCell id="Ohir-lPhPDSaUjCYVocN-34" value="批量任务" style="text;html=1;strokeColor=none;fillColor=none;align=center;verticalAlign=middle;whiteSpace=wrap;rounded=0;fontStyle=1" vertex="1" parent="1">
          <mxGeometry x="591" y="390" width="60" height="29" as="geometry" />
        </mxCell>
        <mxCell id="Ohir-lPhPDSaUjCYVocN-35" value="xxl-job" style="rounded=0;whiteSpace=wrap;html=1;fillColor=#CDEB8B;" vertex="1" parent="1">
          <mxGeometry x="582" y="419" width="80" height="24" as="geometry" />
        </mxCell>
        <mxCell id="Ohir-lPhPDSaUjCYVocN-36" value="" style="rounded=0;whiteSpace=wrap;html=1;fillColor=#d5e8d4;strokeColor=#82b366;" vertex="1" parent="1">
          <mxGeometry x="175" y="460" width="510" height="40" as="geometry" />
        </mxCell>
        <mxCell id="Ohir-lPhPDSaUjCYVocN-37" value="数据访问" style="text;html=1;strokeColor=none;fillColor=none;align=center;verticalAlign=middle;whiteSpace=wrap;rounded=0;fontStyle=1" vertex="1" parent="1">
          <mxGeometry x="200" y="465" width="60" height="30" as="geometry" />
        </mxCell>
        <mxCell id="Ohir-lPhPDSaUjCYVocN-38" value="Mybatis" style="rounded=0;whiteSpace=wrap;html=1;fillColor=#CDEB8B;" vertex="1" parent="1">
          <mxGeometry x="310" y="468" width="80" height="24" as="geometry" />
        </mxCell>
        <mxCell id="Ohir-lPhPDSaUjCYVocN-39" value="Druid" style="rounded=0;whiteSpace=wrap;html=1;fillColor=#CDEB8B;" vertex="1" parent="1">
          <mxGeometry x="440" y="468" width="80" height="24" as="geometry" />
        </mxCell>
        <mxCell id="Ohir-lPhPDSaUjCYVocN-40" value="数据层" style="rounded=0;whiteSpace=wrap;html=1;fillColor=#f8cecc;strokeColor=#b85450;fontStyle=1" vertex="1" parent="1">
          <mxGeometry x="40" y="510" width="120" height="40" as="geometry" />
        </mxCell>
        <mxCell id="Ohir-lPhPDSaUjCYVocN-41" value="" style="rounded=0;whiteSpace=wrap;html=1;fillColor=#f8cecc;strokeColor=#b85450;" vertex="1" parent="1">
          <mxGeometry x="175" y="510" width="510" height="40" as="geometry" />
        </mxCell>
        <mxCell id="Ohir-lPhPDSaUjCYVocN-42" value="Mysql" style="rounded=0;whiteSpace=wrap;html=1;fillColor=#CDEB8B;" vertex="1" parent="1">
          <mxGeometry x="310" y="515" width="75" height="30" as="geometry" />
        </mxCell>
        <mxCell id="Ohir-lPhPDSaUjCYVocN-43" value="Redis" style="rounded=0;whiteSpace=wrap;html=1;fillColor=#CDEB8B;" vertex="1" parent="1">
          <mxGeometry x="440" y="515" width="80" height="30" as="geometry" />
        </mxCell>
        <mxCell id="Ohir-lPhPDSaUjCYVocN-44" value="维修管理" style="rounded=0;whiteSpace=wrap;html=1;fillColor=#CDEB8B;" vertex="1" parent="1">
          <mxGeometry x="304" y="330" width="110" height="20" as="geometry" />
        </mxCell>
        <mxCell id="Ohir-lPhPDSaUjCYVocN-45" value="流程服务" style="rounded=0;whiteSpace=wrap;html=1;fillColor=#CDEB8B;" vertex="1" parent="1">
          <mxGeometry x="304" y="414" width="110" height="20" as="geometry" />
        </mxCell>
        <mxCell id="Ohir-lPhPDSaUjCYVocN-46" value="时控件管理" style="rounded=0;whiteSpace=wrap;html=1;fillColor=#CDEB8B;" vertex="1" parent="1">
          <mxGeometry x="425" y="330" width="105" height="20" as="geometry" />
        </mxCell>
        <mxCell id="Ohir-lPhPDSaUjCYVocN-47" value="备件管理" style="rounded=0;whiteSpace=wrap;html=1;fillColor=#CDEB8B;" vertex="1" parent="1">
          <mxGeometry x="304" y="357" width="110" height="20" as="geometry" />
        </mxCell>
        <mxCell id="Ohir-lPhPDSaUjCYVocN-48" value="运行监控" style="rounded=0;whiteSpace=wrap;html=1;fillColor=#CDEB8B;" vertex="1" parent="1">
          <mxGeometry x="425" y="357" width="105" height="20" as="geometry" />
        </mxCell>
        <mxCell id="Ohir-lPhPDSaUjCYVocN-49" value="技术通报管理" style="rounded=0;whiteSpace=wrap;html=1;fillColor=#CDEB8B;" vertex="1" parent="1">
          <mxGeometry x="304" y="384" width="110" height="20" as="geometry" />
        </mxCell>
        <mxCell id="Ohir-lPhPDSaUjCYVocN-50" value="运行看板" style="rounded=0;whiteSpace=wrap;html=1;fillColor=#CDEB8B;" vertex="1" parent="1">
          <mxGeometry x="425" y="385" width="105" height="20" as="geometry" />
        </mxCell>
      </root>
    </mxGraphModel>
  </diagram>
</mxfile>
